<svg width="18" height="16" viewBox="0 0 18 16" fill="none" xmlns="http://www.w3.org/2000/svg">
<path d="M5.66667 3.83334H3.16667C2.72464 3.83334 2.30072 4.00894 1.98816 4.3215C1.67559 4.63406 1.5 5.05798 1.5 5.50001V13C1.5 13.442 1.67559 13.866 1.98816 14.1785C2.30072 14.4911 2.72464 14.6667 3.16667 14.6667H14.8333C15.2754 14.6667 15.6993 14.4911 16.0118 14.1785C16.3244 13.866 16.5 13.442 16.5 13V5.50001C16.5 5.05798 16.3244 4.63406 16.0118 4.3215C15.6993 4.00894 15.2754 3.83334 14.8333 3.83334H12.3333M11.5 7.16668L9 9.66668M9 9.66668L6.5 7.16668M9 9.66668V1.33334" stroke="white" stroke-width="2" stroke-linecap="round" stroke-linejoin="round"/>
</svg>
